<?xml version="1.0" encoding="utf-8"?>
<!-- Generator: Adobe Illustrator 28.2.0, SVG Export Plug-In . SVG Version: 6.00 Build 0)  -->
<svg version="1.1" id="Layer_1" xmlns="http://www.w3.org/2000/svg" xmlns:xlink="http://www.w3.org/1999/xlink" x="0px" y="0px"
	 viewBox="0 0 170 64" style="enable-background:new 0 0 170 64;" xml:space="preserve">
<style type="text/css">
	.st0{fill:url(#SVGID_1_);}
	.st1{fill:url(#SVGID_00000056399744936764162140000010197254015958388355_);}
	.st2{fill:url(#SVGID_00000074442771163100247110000009934905900939505083_);}
	.st3{fill:#31C57D;}
</style>
<linearGradient id="SVGID_1_" gradientUnits="userSpaceOnUse" x1="9" y1="44" x2="19" y2="44">
	<stop  offset="0" style="stop-color:#FFFFFF"/>
	<stop  offset="1" style="stop-color:#231F20"/>
</linearGradient>
<line class="st0" x1="19" y1="44" x2="9" y2="44"/>
<linearGradient id="SVGID_00000183216210272205228300000004550968173647846074_" gradientUnits="userSpaceOnUse" x1="19" y1="20" x2="19" y2="20">
	<stop  offset="0" style="stop-color:#FFFFFF"/>
	<stop  offset="1" style="stop-color:#231F20"/>
</linearGradient>
<path style="fill:url(#SVGID_00000183216210272205228300000004550968173647846074_);" d="M19,20"/>
<g>
	<polygon points="19,44 9,44 19,20 29,20 	"/>
</g>
<linearGradient id="SVGID_00000065790050098192432650000002123350431237279133_" gradientUnits="userSpaceOnUse" x1="31" y1="32" x2="139" y2="32">
	<stop  offset="1.385225e-07" style="stop-color:#231F20"/>
	<stop  offset="1" style="stop-color:#31C57D"/>
</linearGradient>
<path style="fill:url(#SVGID_00000065790050098192432650000002123350431237279133_);" d="M41,44H31 M41,20 M63,44H53 M63,20 M51,20
	H41L31,44h10L51,20z M73,20H63L53,44h10L73,20z M85,44H75 M85,20 M107,44H97 M107,20 M95,20H85L75,44h10L95,20z M117,20h-10L97,44
	h10L117,20z M139,20h-10l-10,24h10L139,20z"/>
<polygon class="st3" points="161,20 151,20 141,44 151,44 "/>
</svg>
