<svg width="418" height="422" fill="none" xmlns="http://www.w3.org/2000/svg"><path d="M206.359 346.557c77.039 0 139.491-62.452 139.491-139.49 0-77.039-62.452-139.491-139.491-139.491-77.038 0-139.49 62.452-139.49 139.491 0 77.038 62.452 139.49 139.49 139.49Z" fill="#00B9CC"/><path d="M363.864 142.509c8.606 20.395 13.392 42.818 13.392 66.326 0 94.29-76.724 171.015-171.015 171.015-94.29 0-171.015-76.725-171.015-171.015 0-94.291 76.725-171.015 171.015-171.015 42.63 0 81.676 15.68 111.645 41.569l24.238-20.961c-35.98-32.539-83.656-52.392-135.883-52.392C94.408 6.036 3.442 97.002 3.442 208.835c0 111.833 90.966 202.799 202.799 202.799 111.833 0 202.799-90.966 202.799-202.799 0-31.501-7.215-61.351-20.089-87.972l-25.087 21.646Z" fill="#CCCECF"/><path d="M249.696 199.262c-12.59 0-20.654 6.39-27.186 16.104l10.894 7.404c-8.465-6.107-15.397-11.365-24.994-11.365-17.589 0-34.518 13.133-34.518 13.133s19.216-13.652 19.216-26.785c0-12.685-6.06-23.767-6.06-36.9 0 0 28.813 9.596 32.35 3.041 2.523-4.692 7.498-16.599 3.042-22.753-4.244-5.871-18.227-11.624-31.336-11.624-22.235 0-53.571 73.801-53.571 106.15 0 32.35 57.626 36.406 109.193 36.406 19.216 0 36.405-16.293 36.405-36.406 0-20.112-15.986-36.405-33.435-36.405Z" stroke="#fff" stroke-width="7" stroke-miterlimit="10" stroke-linecap="round" stroke-linejoin="round"/><path d="M222.322 157.198c-.566-.094-14.053-2.57-18.203-5.965-1.014-.826-1.509-1.792-1.462-2.853.095-2.735 3.584-5.235 3.749-5.353l.189.26c-.047.023-3.513 2.523-3.608 5.116-.047.967.425 1.863 1.344 2.617 4.103 3.349 17.92 5.871 18.062 5.895l-.071.283Z" stroke="#fff" stroke-width="7" stroke-miterlimit="10" stroke-linecap="round" stroke-linejoin="round"/></svg>